<?xml version="1.0" encoding="utf-8"?>
<!-- Generator: Adobe Illustrator 27.5.0, SVG Export Plug-In . SVG Version: 6.00 Build 0)  -->
<svg version="1.1" xmlns="http://www.w3.org/2000/svg" xmlns:xlink="http://www.w3.org/1999/xlink" x="0px" y="0px"
	 viewBox="0 0 750 500" style="enable-background:new 0 0 750 500;" xml:space="preserve">
<g id="BACKGROUND">
</g>
<g id="OBJECTS">
	<g>
		<defs>
			<rect id="SVGID_1_" x="-0.222" y="0.532" width="750.428" height="499.028"/>
		</defs>
		<clipPath id="SVGID_00000070802141593842569410000001711765678003538584_">
			<use xlink:href="#SVGID_1_"  style="overflow:visible;"/>
		</clipPath>
		<g style="clip-path:url(#SVGID_00000070802141593842569410000001711765678003538584_);">
			
				<ellipse transform="matrix(0.2508 -0.968 0.968 0.2508 -162.4208 191.3526)" style="fill:#0F4C81;" cx="42.418" cy="200.613" rx="25.118" ry="25.118"/>
			<polygon style="fill:#0F4C81;" points="267.777,90.475 236.184,-27.432 354.09,4.161 			"/>
			<g>
				<g>
					<polygon style="fill:#2A2A2A;" points="69.406,438.175 59.505,440.828 62.158,430.926 					"/>
					<polygon style="fill:#2A2A2A;" points="69.406,454.066 59.505,456.719 62.158,446.818 					"/>
					<polygon style="fill:#2A2A2A;" points="69.406,469.957 59.505,472.61 62.158,462.709 					"/>
					<polygon style="fill:#2A2A2A;" points="69.406,485.848 59.505,488.501 62.158,478.6 					"/>
					<polygon style="fill:#2A2A2A;" points="69.406,501.739 59.505,504.392 62.158,494.491 					"/>
				</g>
				<g>
					<polygon style="fill:#2A2A2A;" points="82.788,438.175 72.887,440.828 75.54,430.926 					"/>
					<polygon style="fill:#2A2A2A;" points="82.788,454.066 72.887,456.719 75.54,446.818 					"/>
					<polygon style="fill:#2A2A2A;" points="82.788,469.957 72.887,472.61 75.54,462.709 					"/>
					<polygon style="fill:#2A2A2A;" points="82.788,485.848 72.887,488.501 75.54,478.6 					"/>
					<polygon style="fill:#2A2A2A;" points="82.788,501.739 72.887,504.392 75.54,494.491 					"/>
				</g>
			</g>
			<path style="fill:#0F4C81;" d="M450.825,120.238c-30.081,0-54.554-24.473-54.554-54.555c0-30.081,24.473-54.554,54.554-54.554
				c30.082,0,54.555,24.473,54.555,54.554C505.38,95.765,480.907,120.238,450.825,120.238z M450.825,20.081
				c-25.146,0-45.603,20.457-45.603,45.602c0,25.146,20.457,45.603,45.603,45.603c25.146,0,45.603-20.457,45.603-45.603
				C496.428,40.538,475.971,20.081,450.825,20.081z"/>
			<g>
				<defs>
					<circle id="SVGID_00000040570255240006949570000001296952558797680560_" cx="70.315" cy="72.561" r="79.277"/>
				</defs>
				<clipPath id="SVGID_00000155863620561300132360000004932176797388068535_">
					<use xlink:href="#SVGID_00000040570255240006949570000001296952558797680560_"  style="overflow:visible;"/>
				</clipPath>
				<g style="clip-path:url(#SVGID_00000155863620561300132360000004932176797388068535_);">
					<g>
						
							<line style="fill:none;stroke:#2A2A2A;stroke-width:1.3963;stroke-miterlimit:10;" x1="-27.988" y1="-27.184" x2="-27.988" y2="172.306"/>
						
							<line style="fill:none;stroke:#2A2A2A;stroke-width:1.3963;stroke-miterlimit:10;" x1="-15.88" y1="-27.184" x2="-15.88" y2="172.306"/>
						
							<line style="fill:none;stroke:#2A2A2A;stroke-width:1.3963;stroke-miterlimit:10;" x1="-3.773" y1="-27.184" x2="-3.773" y2="172.306"/>
						
							<line style="fill:none;stroke:#2A2A2A;stroke-width:1.3963;stroke-miterlimit:10;" x1="8.335" y1="-27.184" x2="8.335" y2="172.306"/>
						
							<line style="fill:none;stroke:#2A2A2A;stroke-width:1.3963;stroke-miterlimit:10;" x1="20.443" y1="-27.184" x2="20.443" y2="172.306"/>
						
							<line style="fill:none;stroke:#2A2A2A;stroke-width:1.3963;stroke-miterlimit:10;" x1="32.551" y1="-27.184" x2="32.551" y2="172.306"/>
						
							<line style="fill:none;stroke:#2A2A2A;stroke-width:1.3963;stroke-miterlimit:10;" x1="44.658" y1="-27.184" x2="44.658" y2="172.306"/>
						
							<line style="fill:none;stroke:#2A2A2A;stroke-width:1.3963;stroke-miterlimit:10;" x1="56.766" y1="-27.184" x2="56.766" y2="172.306"/>
						
							<line style="fill:none;stroke:#2A2A2A;stroke-width:1.3963;stroke-miterlimit:10;" x1="68.874" y1="-27.184" x2="68.874" y2="172.306"/>
						
							<line style="fill:none;stroke:#2A2A2A;stroke-width:1.3963;stroke-miterlimit:10;" x1="80.982" y1="-27.184" x2="80.982" y2="172.306"/>
						
							<line style="fill:none;stroke:#2A2A2A;stroke-width:1.3963;stroke-miterlimit:10;" x1="93.089" y1="-27.184" x2="93.089" y2="172.306"/>
						
							<line style="fill:none;stroke:#2A2A2A;stroke-width:1.3963;stroke-miterlimit:10;" x1="105.197" y1="-27.184" x2="105.197" y2="172.306"/>
						
							<line style="fill:none;stroke:#2A2A2A;stroke-width:1.3963;stroke-miterlimit:10;" x1="117.882" y1="-27.184" x2="117.882" y2="172.306"/>
						
							<line style="fill:none;stroke:#2A2A2A;stroke-width:1.3963;stroke-miterlimit:10;" x1="130.566" y1="-27.184" x2="130.566" y2="172.306"/>
						
							<line style="fill:none;stroke:#2A2A2A;stroke-width:1.3963;stroke-miterlimit:10;" x1="143.25" y1="-27.184" x2="143.25" y2="172.306"/>
						
							<line style="fill:none;stroke:#2A2A2A;stroke-width:1.3963;stroke-miterlimit:10;" x1="155.934" y1="-27.184" x2="155.934" y2="172.306"/>
						
							<line style="fill:none;stroke:#2A2A2A;stroke-width:1.3963;stroke-miterlimit:10;" x1="168.619" y1="-27.184" x2="168.619" y2="172.306"/>
					</g>
					<g>
						
							<line style="fill:none;stroke:#2A2A2A;stroke-width:1.3963;stroke-miterlimit:10;" x1="170.06" y1="-25.742" x2="-29.43" y2="-25.742"/>
						
							<line style="fill:none;stroke:#2A2A2A;stroke-width:1.3963;stroke-miterlimit:10;" x1="170.06" y1="-13.635" x2="-29.43" y2="-13.635"/>
						
							<line style="fill:none;stroke:#2A2A2A;stroke-width:1.3963;stroke-miterlimit:10;" x1="170.06" y1="-1.527" x2="-29.43" y2="-1.527"/>
						
							<line style="fill:none;stroke:#2A2A2A;stroke-width:1.3963;stroke-miterlimit:10;" x1="170.06" y1="10.581" x2="-29.43" y2="10.581"/>
						
							<line style="fill:none;stroke:#2A2A2A;stroke-width:1.3963;stroke-miterlimit:10;" x1="170.06" y1="22.689" x2="-29.43" y2="22.689"/>
						
							<line style="fill:none;stroke:#2A2A2A;stroke-width:1.3963;stroke-miterlimit:10;" x1="170.06" y1="34.797" x2="-29.43" y2="34.797"/>
						
							<line style="fill:none;stroke:#2A2A2A;stroke-width:1.3963;stroke-miterlimit:10;" x1="170.06" y1="46.904" x2="-29.43" y2="46.904"/>
						
							<line style="fill:none;stroke:#2A2A2A;stroke-width:1.3963;stroke-miterlimit:10;" x1="170.06" y1="59.012" x2="-29.43" y2="59.012"/>
						
							<line style="fill:none;stroke:#2A2A2A;stroke-width:1.3963;stroke-miterlimit:10;" x1="170.06" y1="71.12" x2="-29.43" y2="71.12"/>
						
							<line style="fill:none;stroke:#2A2A2A;stroke-width:1.3963;stroke-miterlimit:10;" x1="170.06" y1="83.228" x2="-29.43" y2="83.228"/>
						
							<line style="fill:none;stroke:#2A2A2A;stroke-width:1.3963;stroke-miterlimit:10;" x1="170.06" y1="95.335" x2="-29.43" y2="95.335"/>
						
							<line style="fill:none;stroke:#2A2A2A;stroke-width:1.3963;stroke-miterlimit:10;" x1="170.06" y1="107.443" x2="-29.43" y2="107.443"/>
						
							<line style="fill:none;stroke:#2A2A2A;stroke-width:1.3963;stroke-miterlimit:10;" x1="170.06" y1="120.127" x2="-29.43" y2="120.127"/>
						
							<line style="fill:none;stroke:#2A2A2A;stroke-width:1.3963;stroke-miterlimit:10;" x1="170.06" y1="132.812" x2="-29.43" y2="132.812"/>
						
							<line style="fill:none;stroke:#2A2A2A;stroke-width:1.3963;stroke-miterlimit:10;" x1="170.06" y1="145.496" x2="-29.43" y2="145.496"/>
						
							<line style="fill:none;stroke:#2A2A2A;stroke-width:1.3963;stroke-miterlimit:10;" x1="170.06" y1="158.18" x2="-29.43" y2="158.18"/>
						
							<line style="fill:none;stroke:#2A2A2A;stroke-width:1.3963;stroke-miterlimit:10;" x1="170.06" y1="170.865" x2="-29.43" y2="170.865"/>
					</g>
				</g>
			</g>
			<path style="fill:#2A2A2A;" d="M162.417,381.869c0.33-0.32,0.493-0.764,0.424-1.16c-0.033-0.191-0.119-0.363-0.249-0.497
				c-1.603-1.657-3.398-1.613-4.84-1.578c-1.306,0.031-2.338,0.056-3.364-1.004c-0.482-0.498-0.757-1.023-0.867-1.653
				c-0.094-0.542-0.061-1.125-0.026-1.742c0.039-0.687,0.084-1.465-0.052-2.25c-0.175-1.007-0.621-1.87-1.365-2.639
				c-1.603-1.656-3.398-1.613-4.84-1.578c-1.306,0.031-2.338,0.056-3.363-1.004c-0.482-0.498-0.757-1.023-0.867-1.652
				c-0.094-0.542-0.061-1.125-0.026-1.743c0.041-0.72,0.084-1.465-0.052-2.25c-0.175-1.007-0.621-1.87-1.365-2.638
				c-0.41-0.423-1.155-0.369-1.662,0.121c-0.33,0.32-0.493,0.764-0.424,1.16c0.033,0.191,0.119,0.363,0.249,0.497
				c0.482,0.498,0.757,1.023,0.866,1.652c0.094,0.542,0.061,1.125,0.026,1.743c-0.041,0.72-0.084,1.465,0.052,2.25
				c0.175,1.007,0.621,1.87,1.365,2.639c1.602,1.656,3.397,1.613,4.84,1.578c1.306-0.031,2.338-0.056,3.364,1.004
				c0.482,0.498,0.757,1.023,0.867,1.653c0.094,0.542,0.061,1.125,0.025,1.742c-0.041,0.72-0.084,1.466,0.052,2.25
				c0.175,1.007,0.622,1.87,1.365,2.639c1.603,1.656,3.397,1.613,4.84,1.578c1.306-0.031,2.338-0.056,3.364,1.004
				C161.165,382.414,161.911,382.359,162.417,381.869z"/>
			<g>
				<path style="fill:#2A2A2A;" d="M389.428,404.921c1.481,0,2.681,1.2,2.681,2.681c0,1.48-1.2,2.681-2.681,2.681
					c-1.48,0-2.681-1.2-2.681-2.681C386.748,406.121,387.948,404.921,389.428,404.921z"/>
				<path style="fill:#2A2A2A;" d="M389.428,394.963c1.481,0,2.681,1.2,2.681,2.681c0,1.48-1.2,2.681-2.681,2.681
					c-1.48,0-2.681-1.2-2.681-2.681C386.748,396.164,387.948,394.963,389.428,394.963z"/>
				<path style="fill:#2A2A2A;" d="M389.428,385.006c1.481,0,2.681,1.2,2.681,2.681c0,1.48-1.2,2.681-2.681,2.681
					c-1.48,0-2.681-1.2-2.681-2.681C386.748,386.206,387.948,385.006,389.428,385.006z"/>
				<path style="fill:#2A2A2A;" d="M389.428,375.049c1.481,0,2.681,1.2,2.681,2.681c0,1.48-1.2,2.681-2.681,2.681
					c-1.48,0-2.681-1.2-2.681-2.681C386.748,376.249,387.948,375.049,389.428,375.049z"/>
				<circle style="fill:#2A2A2A;" cx="398.237" cy="407.601" r="2.681"/>
				<path style="fill:#2A2A2A;" d="M398.237,394.963c1.48,0,2.681,1.2,2.681,2.681c0,1.48-1.2,2.681-2.681,2.681
					s-2.681-1.2-2.681-2.681C395.556,396.164,396.756,394.963,398.237,394.963z"/>
				<circle style="fill:#2A2A2A;" cx="398.237" cy="387.687" r="2.681"/>
				<path style="fill:#2A2A2A;" d="M398.237,375.049c1.48,0,2.681,1.2,2.681,2.681c0,1.48-1.2,2.681-2.681,2.681
					s-2.681-1.2-2.681-2.681C395.556,376.249,396.756,375.049,398.237,375.049z"/>
				<path style="fill:#2A2A2A;" d="M407.045,404.921c1.48,0,2.681,1.2,2.681,2.681c0,1.48-1.2,2.681-2.681,2.681
					c-1.481,0-2.681-1.2-2.681-2.681C404.364,406.121,405.565,404.921,407.045,404.921z"/>
				<path style="fill:#2A2A2A;" d="M407.045,394.963c1.48,0,2.681,1.2,2.681,2.681c0,1.48-1.2,2.681-2.681,2.681
					c-1.481,0-2.681-1.2-2.681-2.681C404.364,396.164,405.565,394.963,407.045,394.963z"/>
				<path style="fill:#2A2A2A;" d="M407.045,385.006c1.48,0,2.681,1.2,2.681,2.681c0,1.48-1.2,2.681-2.681,2.681
					c-1.481,0-2.681-1.2-2.681-2.681C404.364,386.206,405.565,385.006,407.045,385.006z"/>
				<path style="fill:#2A2A2A;" d="M407.045,375.049c1.48,0,2.681,1.2,2.681,2.681c0,1.48-1.2,2.681-2.681,2.681
					c-1.481,0-2.681-1.2-2.681-2.681C404.364,376.249,405.565,375.049,407.045,375.049z"/>
				<circle style="fill:#2A2A2A;" cx="415.853" cy="407.601" r="2.681"/>
				<path style="fill:#2A2A2A;" d="M415.853,394.963c1.481,0,2.681,1.2,2.681,2.681c0,1.48-1.2,2.681-2.681,2.681
					c-1.481,0-2.681-1.2-2.681-2.681C413.173,396.164,414.373,394.963,415.853,394.963z"/>
				<circle style="fill:#2A2A2A;" cx="415.853" cy="387.687" r="2.681"/>
				<path style="fill:#2A2A2A;" d="M415.853,375.049c1.481,0,2.681,1.2,2.681,2.681c0,1.48-1.2,2.681-2.681,2.681
					c-1.481,0-2.681-1.2-2.681-2.681C413.173,376.249,414.373,375.049,415.853,375.049z"/>
				<circle style="fill:#2A2A2A;" cx="424.662" cy="407.601" r="2.681"/>
				<path style="fill:#2A2A2A;" d="M424.662,394.963c1.481,0,2.681,1.2,2.681,2.681c0,1.48-1.2,2.681-2.681,2.681
					c-1.481,0-2.681-1.2-2.681-2.681C421.981,396.164,423.181,394.963,424.662,394.963z"/>
				<circle style="fill:#2A2A2A;" cx="424.662" cy="387.687" r="2.681"/>
				<path style="fill:#2A2A2A;" d="M424.662,375.049c1.481,0,2.681,1.2,2.681,2.681c0,1.48-1.2,2.681-2.681,2.681
					c-1.481,0-2.681-1.2-2.681-2.681C421.981,376.249,423.181,375.049,424.662,375.049z"/>
			</g>
			
				<rect x="168.665" y="36.244" transform="matrix(0.7491 -0.6625 0.6625 0.7491 25.8201 144.8191)" style="fill:#2A2A2A;" width="70.846" height="4.16"/>
			<g>
				
					<rect x="324.65" y="64.069" style="fill:none;stroke:#1D1D1B;stroke-width:2;stroke-linejoin:round;stroke-miterlimit:10;" width="37.469" height="37.469"/>
				<polyline style="fill:none;stroke:#1D1D1B;stroke-width:2;stroke-linejoin:round;stroke-miterlimit:10;" points="
					324.529,64.116 338.275,56.162 374.041,56.162 362.119,64.069 				"/>
				<polyline style="fill:none;stroke:#1D1D1B;stroke-width:2;stroke-linejoin:round;stroke-miterlimit:10;" points="
					361.754,101.72 373.676,91.806 373.676,56.527 				"/>
				<polyline style="fill:none;stroke:#1D1D1B;stroke-width:2;stroke-linejoin:round;stroke-miterlimit:10;" points="337.91,56.527 
					337.91,92.292 324.65,101.538 				"/>
				
					<line style="fill:none;stroke:#1D1D1B;stroke-width:2;stroke-linejoin:round;stroke-miterlimit:10;" x1="337.91" y1="92.292" x2="373.676" y2="91.806"/>
			</g>
			<g>
				
					<rect x="119.031" y="226.4" style="fill:none;stroke:#1D1D1B;stroke-width:1.4827;stroke-linejoin:round;stroke-miterlimit:10;" width="27.777" height="27.777"/>
				<polyline style="fill:none;stroke:#1D1D1B;stroke-width:1.4827;stroke-linejoin:round;stroke-miterlimit:10;" points="
					118.94,226.434 129.131,220.538 155.646,220.538 146.807,226.4 				"/>
				<polyline style="fill:none;stroke:#1D1D1B;stroke-width:1.4827;stroke-linejoin:round;stroke-miterlimit:10;" points="
					146.537,254.312 155.375,246.962 155.375,220.809 				"/>
				<polyline style="fill:none;stroke:#1D1D1B;stroke-width:1.4827;stroke-linejoin:round;stroke-miterlimit:10;" points="
					128.861,220.809 128.861,247.323 119.031,254.177 				"/>
				
					<line style="fill:none;stroke:#1D1D1B;stroke-width:1.4827;stroke-linejoin:round;stroke-miterlimit:10;" x1="128.861" y1="247.323" x2="155.375" y2="246.962"/>
			</g>
			<g>
				
					<rect x="599.457" y="49.477" style="fill:none;stroke:#1D1D1B;stroke-width:1.4992;stroke-linejoin:round;stroke-miterlimit:10;" width="28.086" height="28.086"/>
				<polyline style="fill:none;stroke:#1D1D1B;stroke-width:1.4992;stroke-linejoin:round;stroke-miterlimit:10;" points="
					599.366,49.512 609.67,43.55 636.479,43.55 627.543,49.477 				"/>
				<polyline style="fill:none;stroke:#1D1D1B;stroke-width:1.4992;stroke-linejoin:round;stroke-miterlimit:10;" points="
					627.269,77.7 636.206,70.268 636.206,43.823 				"/>
				<polyline style="fill:none;stroke:#1D1D1B;stroke-width:1.4992;stroke-linejoin:round;stroke-miterlimit:10;" points="
					609.396,43.823 609.396,70.632 599.457,77.563 				"/>
				
					<line style="fill:none;stroke:#1D1D1B;stroke-width:1.4992;stroke-linejoin:round;stroke-miterlimit:10;" x1="609.396" y1="70.632" x2="636.206" y2="70.268"/>
			</g>
			<g>
				
					<rect x="559.236" y="423.332" style="fill:none;stroke:#1D1D1B;stroke-width:1.5459;stroke-linejoin:round;stroke-miterlimit:10;" width="28.961" height="28.961"/>
				<polyline style="fill:none;stroke:#1D1D1B;stroke-width:1.5459;stroke-linejoin:round;stroke-miterlimit:10;" points="
					559.142,423.367 569.767,417.22 597.411,417.22 588.197,423.332 				"/>
				<polyline style="fill:none;stroke:#1D1D1B;stroke-width:1.5459;stroke-linejoin:round;stroke-miterlimit:10;" points="
					587.915,452.434 597.129,444.77 597.129,417.502 				"/>
				<polyline style="fill:none;stroke:#1D1D1B;stroke-width:1.5459;stroke-linejoin:round;stroke-miterlimit:10;" points="
					569.485,417.502 569.485,445.146 559.236,452.293 				"/>
				
					<line style="fill:none;stroke:#1D1D1B;stroke-width:1.5459;stroke-linejoin:round;stroke-miterlimit:10;" x1="569.485" y1="445.146" x2="597.129" y2="444.77"/>
			</g>
			<g>
				
					<rect x="114.183" y="418.798" style="fill:none;stroke:#1D1D1B;stroke-width:2;stroke-linejoin:round;stroke-miterlimit:10;" width="37.469" height="37.469"/>
				<polyline style="fill:none;stroke:#1D1D1B;stroke-width:2;stroke-linejoin:round;stroke-miterlimit:10;" points="
					114.061,418.844 127.808,410.89 163.573,410.89 151.651,418.798 				"/>
				<polyline style="fill:none;stroke:#1D1D1B;stroke-width:2;stroke-linejoin:round;stroke-miterlimit:10;" points="
					151.286,456.449 163.208,446.534 163.208,411.255 				"/>
				<polyline style="fill:none;stroke:#1D1D1B;stroke-width:2;stroke-linejoin:round;stroke-miterlimit:10;" points="
					127.443,411.255 127.443,447.021 114.183,456.266 				"/>
				
					<line style="fill:none;stroke:#1D1D1B;stroke-width:2;stroke-linejoin:round;stroke-miterlimit:10;" x1="127.443" y1="447.021" x2="163.208" y2="446.534"/>
			</g>
			<g>
				
					<rect x="681.402" y="352.1" style="fill:none;stroke:#1D1D1B;stroke-width:2;stroke-linejoin:round;stroke-miterlimit:10;" width="37.469" height="37.469"/>
				<polyline style="fill:none;stroke:#1D1D1B;stroke-width:2;stroke-linejoin:round;stroke-miterlimit:10;" points="
					681.28,352.146 695.027,344.192 730.793,344.192 718.871,352.1 				"/>
				<polyline style="fill:none;stroke:#1D1D1B;stroke-width:2;stroke-linejoin:round;stroke-miterlimit:10;" points="
					718.506,389.751 730.428,379.836 730.428,344.557 				"/>
				<polyline style="fill:none;stroke:#1D1D1B;stroke-width:2;stroke-linejoin:round;stroke-miterlimit:10;" points="
					694.662,344.557 694.662,380.323 681.402,389.569 				"/>
				
					<line style="fill:none;stroke:#1D1D1B;stroke-width:2;stroke-linejoin:round;stroke-miterlimit:10;" x1="694.662" y1="380.323" x2="730.428" y2="379.836"/>
			</g>
			<path style="fill:#0F4C81;" d="M262.521,556.506c-30.081,0-54.554-24.473-54.554-54.555c0-30.081,24.473-54.554,54.554-54.554
				c30.082,0,54.555,24.473,54.555,54.554C317.076,532.033,292.603,556.506,262.521,556.506z M262.521,456.349
				c-25.146,0-45.603,20.457-45.603,45.602c0,25.146,20.457,45.603,45.603,45.603c25.146,0,45.603-20.457,45.603-45.603
				C308.124,476.806,287.667,456.349,262.521,456.349z"/>
			<path style="fill:#0F4C81;" d="M500.948,292.228c-20.572,0-37.308-16.736-37.308-37.308c0-20.571,16.736-37.308,37.308-37.308
				c20.572,0,37.308,16.736,37.308,37.308C538.256,275.492,521.52,292.228,500.948,292.228z M500.948,223.734
				c-17.196,0-31.186,13.99-31.186,31.186c0,17.197,13.99,31.187,31.186,31.187c17.196,0,31.187-13.99,31.187-31.187
				C532.135,237.724,518.144,223.734,500.948,223.734z"/>
			<g>
				<g>
					<polygon style="fill:#2A2A2A;" points="610.629,125.776 607.976,115.874 617.878,118.527 					"/>
					<polygon style="fill:#2A2A2A;" points="594.738,125.776 592.085,115.874 601.986,118.527 					"/>
					<polygon style="fill:#2A2A2A;" points="578.847,125.776 576.194,115.874 586.095,118.527 					"/>
					<polygon style="fill:#2A2A2A;" points="562.956,125.776 560.303,115.874 570.204,118.527 					"/>
					<polygon style="fill:#2A2A2A;" points="547.065,125.776 544.412,115.874 554.313,118.527 					"/>
				</g>
				<g>
					<polygon style="fill:#2A2A2A;" points="610.629,139.158 607.976,129.256 617.878,131.909 					"/>
					<polygon style="fill:#2A2A2A;" points="594.738,139.158 592.085,129.256 601.986,131.909 					"/>
					<polygon style="fill:#2A2A2A;" points="578.847,139.158 576.194,129.256 586.095,131.909 					"/>
					<polygon style="fill:#2A2A2A;" points="562.956,139.158 560.303,129.256 570.204,131.909 					"/>
					<polygon style="fill:#2A2A2A;" points="547.065,139.158 544.412,129.256 554.313,131.909 					"/>
				</g>
			</g>
			<g>
				<g>
					<polygon style="fill:#2A2A2A;" points="781.474,424.291 778.821,414.39 788.723,417.043 					"/>
					<polygon style="fill:#2A2A2A;" points="765.583,424.291 762.93,414.39 772.831,417.043 					"/>
					<polygon style="fill:#2A2A2A;" points="749.692,424.291 747.039,414.39 756.94,417.043 					"/>
					<polygon style="fill:#2A2A2A;" points="733.801,424.291 731.148,414.39 741.049,417.043 					"/>
					<polygon style="fill:#2A2A2A;" points="717.91,424.291 715.257,414.39 725.158,417.043 					"/>
				</g>
				<g>
					<polygon style="fill:#2A2A2A;" points="781.474,437.673 778.821,427.772 788.723,430.425 					"/>
					<polygon style="fill:#2A2A2A;" points="765.583,437.673 762.93,427.772 772.831,430.425 					"/>
					<polygon style="fill:#2A2A2A;" points="749.692,437.673 747.039,427.772 756.94,430.425 					"/>
					<polygon style="fill:#2A2A2A;" points="733.801,437.673 731.148,427.772 741.049,430.425 					"/>
					<polygon style="fill:#2A2A2A;" points="717.91,437.673 715.257,427.772 725.158,430.425 					"/>
				</g>
			</g>
			<g>
				<g>
					<polygon style="fill:#2A2A2A;" points="339.818,420.52 337.165,410.619 347.067,413.272 					"/>
					<polygon style="fill:#2A2A2A;" points="323.927,420.52 321.274,410.619 331.175,413.272 					"/>
					<polygon style="fill:#2A2A2A;" points="308.036,420.52 305.383,410.619 315.284,413.272 					"/>
					<polygon style="fill:#2A2A2A;" points="292.145,420.52 289.492,410.619 299.393,413.272 					"/>
					<polygon style="fill:#2A2A2A;" points="276.254,420.52 273.601,410.619 283.502,413.272 					"/>
				</g>
				<g>
					<polygon style="fill:#2A2A2A;" points="339.818,433.902 337.165,424.001 347.067,426.654 					"/>
					<polygon style="fill:#2A2A2A;" points="323.927,433.902 321.274,424.001 331.175,426.654 					"/>
					<polygon style="fill:#2A2A2A;" points="308.036,433.902 305.383,424.001 315.284,426.654 					"/>
					<polygon style="fill:#2A2A2A;" points="292.145,433.902 289.492,424.001 299.393,426.654 					"/>
					<polygon style="fill:#2A2A2A;" points="276.254,433.902 273.601,424.001 283.502,426.654 					"/>
				</g>
			</g>
			<g>
				<g>
					<polygon style="fill:#2A2A2A;" points="209.835,167.558 207.182,157.656 217.084,160.309 					"/>
					<polygon style="fill:#2A2A2A;" points="193.944,167.558 191.291,157.656 201.193,160.309 					"/>
					<polygon style="fill:#2A2A2A;" points="178.053,167.558 175.4,157.656 185.301,160.309 					"/>
					<polygon style="fill:#2A2A2A;" points="162.162,167.558 159.509,157.656 169.41,160.309 					"/>
					<polygon style="fill:#2A2A2A;" points="146.271,167.558 143.618,157.656 153.519,160.309 					"/>
				</g>
				<g>
					<polygon style="fill:#2A2A2A;" points="209.835,180.94 207.182,171.038 217.084,173.691 					"/>
					<polygon style="fill:#2A2A2A;" points="193.944,180.94 191.291,171.038 201.193,173.691 					"/>
					<polygon style="fill:#2A2A2A;" points="178.053,180.94 175.4,171.038 185.301,173.691 					"/>
					<polygon style="fill:#2A2A2A;" points="162.162,180.94 159.509,171.038 169.41,173.691 					"/>
					<polygon style="fill:#2A2A2A;" points="146.271,180.94 143.618,171.038 153.519,173.691 					"/>
				</g>
			</g>
			<g>
				<g>
					<polygon style="fill:#2A2A2A;" points="438.159,222.053 435.506,212.152 445.408,214.805 					"/>
					<polygon style="fill:#2A2A2A;" points="422.268,222.053 419.615,212.152 429.516,214.805 					"/>
					<polygon style="fill:#2A2A2A;" points="406.377,222.053 403.724,212.152 413.625,214.805 					"/>
					<polygon style="fill:#2A2A2A;" points="390.486,222.053 387.833,212.152 397.734,214.805 					"/>
					<polygon style="fill:#2A2A2A;" points="374.595,222.053 371.942,212.152 381.843,214.805 					"/>
				</g>
				<g>
					<polygon style="fill:#2A2A2A;" points="438.159,235.436 435.506,225.534 445.408,228.187 					"/>
					<polygon style="fill:#2A2A2A;" points="422.268,235.436 419.615,225.534 429.516,228.187 					"/>
					<polygon style="fill:#2A2A2A;" points="406.377,235.436 403.724,225.534 413.625,228.187 					"/>
					<polygon style="fill:#2A2A2A;" points="390.486,235.436 387.833,225.534 397.734,228.187 					"/>
					<polygon style="fill:#2A2A2A;" points="374.595,235.436 371.942,225.534 381.843,228.187 					"/>
				</g>
			</g>
			
				<ellipse transform="matrix(0.2273 -0.9738 0.9738 0.2273 411.8918 755.171)" style="fill:#0F4C81;" cx="681.816" cy="118.033" rx="25.118" ry="25.118"/>
			
				<ellipse transform="matrix(0.2273 -0.9738 0.9738 0.2273 101.0594 920.7687)" style="fill:#0F4C81;" cx="630.751" cy="396.702" rx="25.118" ry="25.118"/>
			<circle style="fill:#0F4C81;" cx="349.596" cy="504.258" r="13.497"/>
			
				<ellipse transform="matrix(0.7071 -0.7071 0.7071 0.7071 -19.2137 306.6366)" style="fill:#0F4C81;" cx="360.536" cy="176.511" rx="11.142" ry="11.142"/>
			
				<rect x="474.212" y="160.134" transform="matrix(0.7491 -0.6625 0.6625 0.7491 16.7224 366.5304)" style="fill:#2A2A2A;" width="35.981" height="2.113"/>
			
				<rect x="208.909" y="420.311" transform="matrix(0.7491 -0.6625 0.6625 0.7491 -221.1603 259.3841)" style="fill:#2A2A2A;" width="45.878" height="2.694"/>
			
				<rect x="639.098" y="179.419" transform="matrix(0.7491 -0.6625 0.6625 0.7491 49.0091 492.3936)" style="fill:#2A2A2A;" width="70.846" height="4.16"/>
			
				<rect x="221.093" y="325.319" transform="matrix(0.7491 -0.6625 0.6625 0.7491 -152.5296 252.0852)" style="fill:#2A2A2A;" width="70.846" height="4.16"/>
			
				<rect x="635.794" y="335.215" transform="matrix(0.7491 -0.6625 0.6625 0.7491 -58.6197 517.8326)" style="fill:#2A2A2A;" width="36.987" height="2.172"/>
			
				<rect x="-42.245" y="465.99" transform="matrix(0.7491 -0.6625 0.6625 0.7491 -311.796 112.9269)" style="fill:#2A2A2A;" width="70.846" height="4.16"/>
			
				<rect x="-31.513" y="278.716" transform="matrix(0.7491 -0.6625 0.6625 0.7491 -185.0393 73.0464)" style="fill:#2A2A2A;" width="70.846" height="4.16"/>
			
				<rect x="697.807" y="-2.224" transform="matrix(0.7491 -0.6625 0.6625 0.7491 179.9164 472.4488)" style="fill:#2A2A2A;" width="31.711" height="1.862"/>
			<path style="fill:#2A2A2A;" d="M324.717,381.116c0.538-0.52,0.802-1.244,0.69-1.888c-0.054-0.311-0.194-0.591-0.405-0.809
				c-2.609-2.697-5.531-2.626-7.879-2.569c-2.126,0.051-3.806,0.092-5.476-1.634c-0.785-0.811-1.233-1.666-1.411-2.691
				c-0.153-0.883-0.099-1.831-0.042-2.836c0.064-1.118,0.137-2.385-0.085-3.664c-0.285-1.639-1.011-3.044-2.222-4.295
				c-2.609-2.697-5.531-2.626-7.879-2.568c-2.126,0.051-3.805,0.092-5.475-1.634c-0.784-0.811-1.233-1.665-1.411-2.69
				c-0.153-0.883-0.099-1.831-0.041-2.837c0.067-1.173,0.137-2.386-0.085-3.664c-0.285-1.639-1.011-3.044-2.222-4.295
				c-0.667-0.689-1.881-0.601-2.705,0.196c-0.538,0.52-0.802,1.244-0.69,1.888c0.054,0.311,0.194,0.591,0.405,0.809
				c0.784,0.811,1.232,1.665,1.41,2.69c0.153,0.883,0.099,1.831,0.042,2.837c-0.067,1.173-0.137,2.385,0.085,3.663
				c0.285,1.639,1.011,3.044,2.222,4.295c2.609,2.696,5.531,2.625,7.879,2.568c2.126-0.051,3.806-0.092,5.476,1.634
				c0.784,0.811,1.233,1.665,1.41,2.69c0.153,0.883,0.099,1.831,0.042,2.836c-0.067,1.173-0.137,2.386,0.085,3.663
				c0.285,1.639,1.012,3.044,2.222,4.296c2.609,2.696,5.531,2.625,7.879,2.568c2.126-0.051,3.806-0.092,5.476,1.634
				C322.679,382.002,323.892,381.914,324.717,381.116z"/>
			<path style="fill:#2A2A2A;" d="M498.143,433.833c0.357-0.346,0.533-0.827,0.459-1.255c-0.036-0.207-0.129-0.393-0.269-0.538
				c-1.734-1.792-3.676-1.745-5.236-1.707c-1.413,0.034-2.529,0.061-3.639-1.086c-0.521-0.539-0.819-1.107-0.938-1.788
				c-0.102-0.587-0.066-1.217-0.028-1.885c0.043-0.743,0.091-1.585-0.057-2.435c-0.189-1.089-0.672-2.023-1.477-2.855
				c-1.734-1.792-3.676-1.745-5.237-1.707c-1.413,0.034-2.529,0.061-3.639-1.086c-0.521-0.539-0.819-1.107-0.937-1.788
				c-0.102-0.587-0.066-1.217-0.028-1.885c0.045-0.779,0.091-1.585-0.056-2.435c-0.189-1.089-0.672-2.023-1.477-2.854
				c-0.443-0.458-1.25-0.4-1.798,0.13c-0.357,0.346-0.533,0.827-0.459,1.255c0.036,0.207,0.129,0.393,0.269,0.538
				c0.521,0.539,0.819,1.107,0.937,1.788c0.102,0.587,0.066,1.217,0.028,1.886c-0.045,0.779-0.091,1.585,0.056,2.434
				c0.189,1.09,0.672,2.023,1.477,2.855c1.734,1.792,3.676,1.745,5.236,1.707c1.413-0.034,2.529-0.061,3.639,1.086
				c0.521,0.539,0.819,1.107,0.938,1.788c0.102,0.587,0.066,1.217,0.028,1.885c-0.045,0.78-0.091,1.586,0.056,2.435
				c0.189,1.09,0.672,2.023,1.477,2.855c1.734,1.792,3.676,1.745,5.236,1.707c1.413-0.034,2.529-0.061,3.639,1.086
				C496.788,434.422,497.595,434.363,498.143,433.833z"/>
			<path style="fill:#2A2A2A;" d="M612.841,311.738c0.332-0.321,0.495-0.767,0.426-1.164c-0.033-0.192-0.12-0.364-0.25-0.499
				c-1.608-1.663-3.41-1.619-4.857-1.584c-1.311,0.032-2.346,0.057-3.376-1.007c-0.484-0.5-0.76-1.027-0.87-1.659
				c-0.094-0.544-0.061-1.129-0.026-1.748c0.04-0.689,0.084-1.471-0.052-2.259c-0.176-1.01-0.624-1.877-1.37-2.648
				c-1.608-1.662-3.41-1.619-4.858-1.583c-1.311,0.032-2.346,0.057-3.375-1.007c-0.484-0.5-0.76-1.027-0.87-1.658
				c-0.094-0.544-0.061-1.129-0.026-1.749c0.041-0.723,0.085-1.471-0.052-2.259c-0.176-1.01-0.623-1.876-1.37-2.648
				c-0.411-0.425-1.159-0.371-1.668,0.121c-0.331,0.321-0.495,0.767-0.425,1.164c0.033,0.192,0.12,0.364,0.25,0.499
				c0.484,0.5,0.76,1.027,0.869,1.658c0.094,0.544,0.061,1.129,0.026,1.749c-0.042,0.723-0.084,1.471,0.052,2.258
				c0.176,1.011,0.624,1.877,1.37,2.648c1.608,1.662,3.409,1.618,4.857,1.583c1.311-0.032,2.346-0.057,3.376,1.007
				c0.483,0.5,0.76,1.027,0.87,1.659c0.094,0.544,0.061,1.129,0.026,1.749c-0.041,0.723-0.084,1.471,0.052,2.258
				c0.175,1.011,0.624,1.877,1.37,2.648c1.608,1.662,3.409,1.619,4.857,1.583c1.311-0.032,2.346-0.057,3.376,1.007
				C611.584,312.284,612.332,312.229,612.841,311.738z"/>
			<path style="fill:#2A2A2A;" d="M416.655,157.374c0.538-0.52,0.802-1.244,0.69-1.888c-0.054-0.311-0.194-0.591-0.405-0.809
				c-2.609-2.697-5.531-2.626-7.879-2.569c-2.126,0.051-3.806,0.092-5.476-1.634c-0.784-0.811-1.233-1.666-1.411-2.691
				c-0.153-0.883-0.099-1.831-0.042-2.836c0.064-1.118,0.137-2.385-0.085-3.663c-0.285-1.639-1.011-3.044-2.222-4.295
				c-2.609-2.697-5.531-2.626-7.879-2.568c-2.126,0.051-3.806,0.092-5.475-1.634c-0.784-0.811-1.233-1.665-1.41-2.69
				c-0.153-0.883-0.099-1.831-0.042-2.837c0.067-1.173,0.137-2.386-0.085-3.664c-0.285-1.639-1.011-3.044-2.222-4.295
				c-0.667-0.689-1.88-0.601-2.705,0.196c-0.538,0.52-0.802,1.244-0.69,1.888c0.054,0.311,0.194,0.591,0.405,0.809
				c0.784,0.811,1.232,1.665,1.41,2.69c0.153,0.883,0.099,1.831,0.042,2.837c-0.068,1.173-0.137,2.386,0.085,3.663
				c0.285,1.639,1.011,3.044,2.222,4.295c2.609,2.696,5.531,2.625,7.879,2.568c2.126-0.051,3.806-0.092,5.476,1.634
				c0.784,0.811,1.233,1.665,1.41,2.69c0.153,0.883,0.099,1.831,0.042,2.836c-0.067,1.173-0.137,2.386,0.085,3.663
				c0.285,1.639,1.012,3.044,2.222,4.296c2.609,2.696,5.531,2.625,7.879,2.568c2.126-0.051,3.806-0.092,5.476,1.634
				C414.616,158.26,415.83,158.172,416.655,157.374z"/>
			<path style="fill:#2A2A2A;" d="M175.635,512.36c0.538-0.52,0.802-1.244,0.69-1.888c-0.054-0.311-0.194-0.591-0.405-0.809
				c-2.609-2.697-5.531-2.626-7.879-2.569c-2.126,0.051-3.806,0.092-5.476-1.634c-0.785-0.811-1.233-1.666-1.411-2.691
				c-0.153-0.883-0.099-1.831-0.042-2.836c0.064-1.118,0.137-2.385-0.085-3.663c-0.285-1.639-1.011-3.044-2.222-4.295
				c-2.609-2.697-5.531-2.626-7.879-2.569c-2.126,0.051-3.805,0.092-5.475-1.634c-0.784-0.811-1.233-1.665-1.41-2.69
				c-0.153-0.883-0.099-1.831-0.042-2.837c0.067-1.173,0.137-2.386-0.085-3.664c-0.285-1.639-1.011-3.044-2.222-4.295
				c-0.667-0.689-1.881-0.601-2.705,0.196c-0.538,0.52-0.802,1.244-0.69,1.888c0.054,0.311,0.194,0.591,0.405,0.809
				c0.784,0.811,1.232,1.665,1.41,2.69c0.153,0.883,0.099,1.831,0.042,2.837c-0.067,1.173-0.137,2.385,0.085,3.663
				c0.285,1.639,1.011,3.044,2.222,4.295c2.609,2.696,5.531,2.625,7.879,2.568c2.126-0.051,3.806-0.092,5.476,1.634
				c0.784,0.811,1.233,1.665,1.41,2.69c0.153,0.883,0.099,1.831,0.042,2.836c-0.067,1.173-0.137,2.386,0.085,3.663
				c0.285,1.639,1.012,3.045,2.222,4.296c2.609,2.696,5.531,2.626,7.879,2.569c2.126-0.051,3.806-0.092,5.476,1.634
				C173.596,513.246,174.81,513.158,175.635,512.36z"/>
			<path style="fill:#2A2A2A;" d="M742.122,73.152c0.538-0.52,0.802-1.244,0.69-1.888c-0.054-0.311-0.194-0.591-0.405-0.809
				c-2.609-2.697-5.531-2.626-7.879-2.569c-2.126,0.051-3.806,0.092-5.476-1.634c-0.785-0.811-1.233-1.666-1.411-2.691
				c-0.153-0.883-0.099-1.831-0.042-2.836c0.064-1.118,0.137-2.386-0.085-3.664c-0.285-1.639-1.011-3.044-2.222-4.295
				c-2.609-2.697-5.531-2.626-7.879-2.569c-2.126,0.051-3.805,0.092-5.475-1.634c-0.784-0.811-1.233-1.666-1.411-2.69
				c-0.153-0.883-0.099-1.831-0.042-2.837c0.067-1.173,0.137-2.386-0.085-3.664c-0.285-1.639-1.011-3.044-2.222-4.295
				c-0.667-0.689-1.88-0.601-2.705,0.196c-0.538,0.52-0.802,1.244-0.69,1.888c0.054,0.311,0.194,0.591,0.405,0.809
				c0.784,0.811,1.232,1.665,1.41,2.69c0.153,0.883,0.099,1.831,0.042,2.837c-0.068,1.173-0.137,2.386,0.085,3.663
				c0.285,1.639,1.011,3.045,2.222,4.295c2.609,2.696,5.531,2.625,7.879,2.568c2.126-0.051,3.806-0.092,5.476,1.634
				c0.784,0.811,1.233,1.666,1.41,2.69c0.153,0.883,0.099,1.831,0.042,2.836c-0.067,1.173-0.137,2.386,0.085,3.663
				c0.285,1.639,1.012,3.044,2.222,4.296c2.609,2.696,5.531,2.625,7.879,2.568c2.126-0.051,3.806-0.092,5.476,1.634
				C740.084,74.038,741.297,73.95,742.122,73.152z"/>
			<path style="fill:#2A2A2A;" d="M588.526,23.169c0.538-0.52,0.802-1.244,0.69-1.888c-0.054-0.311-0.194-0.591-0.405-0.809
				c-2.609-2.697-5.531-2.626-7.879-2.569c-2.126,0.051-3.806,0.092-5.476-1.634c-0.784-0.811-1.233-1.666-1.411-2.691
				c-0.153-0.883-0.099-1.831-0.042-2.836c0.064-1.118,0.137-2.386-0.085-3.664c-0.285-1.639-1.011-3.044-2.222-4.295
				c-2.609-2.697-5.531-2.626-7.879-2.569c-2.126,0.051-3.805,0.092-5.475-1.634c-0.784-0.811-1.233-1.665-1.41-2.69
				c-0.153-0.883-0.099-1.831-0.042-2.837c0.067-1.173,0.137-2.386-0.085-3.664c-0.285-1.639-1.011-3.044-2.222-4.295
				c-0.667-0.689-1.88-0.601-2.705,0.196c-0.538,0.52-0.802,1.244-0.69,1.888c0.054,0.311,0.194,0.591,0.405,0.809
				c0.784,0.811,1.232,1.665,1.41,2.69c0.153,0.883,0.099,1.831,0.042,2.837c-0.068,1.173-0.137,2.385,0.085,3.663
				c0.285,1.64,1.011,3.045,2.222,4.295c2.609,2.696,5.531,2.625,7.879,2.568c2.126-0.051,3.806-0.092,5.476,1.634
				c0.784,0.811,1.233,1.666,1.411,2.69c0.153,0.883,0.099,1.831,0.042,2.836c-0.067,1.173-0.137,2.386,0.085,3.663
				c0.285,1.639,1.012,3.045,2.222,4.296c2.609,2.696,5.531,2.626,7.879,2.569c2.126-0.051,3.806-0.092,5.476,1.634
				C586.487,24.055,587.701,23.967,588.526,23.169z"/>
			<g>
				<defs>
					
						<ellipse id="SVGID_00000085954826594624761810000011658876089230866339_" transform="matrix(0.9739 -0.227 0.227 0.9739 -65.1257 91.5773)" cx="365.673" cy="328.996" rx="28.753" ry="28.753"/>
				</defs>
				<clipPath id="SVGID_00000164480909914146835350000015189240773910361527_">
					<use xlink:href="#SVGID_00000085954826594624761810000011658876089230866339_"  style="overflow:visible;"/>
				</clipPath>
				<g style="clip-path:url(#SVGID_00000164480909914146835350000015189240773910361527_);">
					<g>
						
							<line style="fill:none;stroke:#2A2A2A;stroke-width:0.5064;stroke-miterlimit:10;" x1="330.02" y1="292.82" x2="330.02" y2="365.172"/>
						
							<line style="fill:none;stroke:#2A2A2A;stroke-width:0.5064;stroke-miterlimit:10;" x1="334.411" y1="292.82" x2="334.411" y2="365.172"/>
						
							<line style="fill:none;stroke:#2A2A2A;stroke-width:0.5064;stroke-miterlimit:10;" x1="338.802" y1="292.82" x2="338.802" y2="365.172"/>
						
							<line style="fill:none;stroke:#2A2A2A;stroke-width:0.5064;stroke-miterlimit:10;" x1="343.194" y1="292.82" x2="343.194" y2="365.172"/>
						
							<line style="fill:none;stroke:#2A2A2A;stroke-width:0.5064;stroke-miterlimit:10;" x1="347.585" y1="292.82" x2="347.585" y2="365.172"/>
						
							<line style="fill:none;stroke:#2A2A2A;stroke-width:0.5064;stroke-miterlimit:10;" x1="351.976" y1="292.82" x2="351.976" y2="365.172"/>
						
							<line style="fill:none;stroke:#2A2A2A;stroke-width:0.5064;stroke-miterlimit:10;" x1="356.368" y1="292.82" x2="356.368" y2="365.172"/>
						
							<line style="fill:none;stroke:#2A2A2A;stroke-width:0.5064;stroke-miterlimit:10;" x1="360.759" y1="292.82" x2="360.759" y2="365.172"/>
						
							<line style="fill:none;stroke:#2A2A2A;stroke-width:0.5064;stroke-miterlimit:10;" x1="365.15" y1="292.82" x2="365.15" y2="365.172"/>
						
							<line style="fill:none;stroke:#2A2A2A;stroke-width:0.5064;stroke-miterlimit:10;" x1="369.542" y1="292.82" x2="369.542" y2="365.172"/>
						
							<line style="fill:none;stroke:#2A2A2A;stroke-width:0.5064;stroke-miterlimit:10;" x1="373.933" y1="292.82" x2="373.933" y2="365.172"/>
						
							<line style="fill:none;stroke:#2A2A2A;stroke-width:0.5064;stroke-miterlimit:10;" x1="378.324" y1="292.82" x2="378.324" y2="365.172"/>
						
							<line style="fill:none;stroke:#2A2A2A;stroke-width:0.5064;stroke-miterlimit:10;" x1="382.925" y1="292.82" x2="382.925" y2="365.172"/>
						
							<line style="fill:none;stroke:#2A2A2A;stroke-width:0.5064;stroke-miterlimit:10;" x1="387.525" y1="292.82" x2="387.525" y2="365.172"/>
						
							<line style="fill:none;stroke:#2A2A2A;stroke-width:0.5064;stroke-miterlimit:10;" x1="392.125" y1="292.82" x2="392.125" y2="365.172"/>
						
							<line style="fill:none;stroke:#2A2A2A;stroke-width:0.5064;stroke-miterlimit:10;" x1="396.726" y1="292.82" x2="396.726" y2="365.172"/>
						
							<line style="fill:none;stroke:#2A2A2A;stroke-width:0.5064;stroke-miterlimit:10;" x1="401.326" y1="292.82" x2="401.326" y2="365.172"/>
					</g>
					<g>
						
							<line style="fill:none;stroke:#2A2A2A;stroke-width:0.5064;stroke-miterlimit:10;" x1="401.849" y1="293.343" x2="329.497" y2="293.343"/>
						
							<line style="fill:none;stroke:#2A2A2A;stroke-width:0.5064;stroke-miterlimit:10;" x1="401.849" y1="297.734" x2="329.497" y2="297.734"/>
						
							<line style="fill:none;stroke:#2A2A2A;stroke-width:0.5064;stroke-miterlimit:10;" x1="401.849" y1="302.126" x2="329.497" y2="302.126"/>
						
							<line style="fill:none;stroke:#2A2A2A;stroke-width:0.5064;stroke-miterlimit:10;" x1="401.849" y1="306.517" x2="329.497" y2="306.517"/>
						
							<line style="fill:none;stroke:#2A2A2A;stroke-width:0.5064;stroke-miterlimit:10;" x1="401.849" y1="310.908" x2="329.497" y2="310.908"/>
						
							<line style="fill:none;stroke:#2A2A2A;stroke-width:0.5064;stroke-miterlimit:10;" x1="401.849" y1="315.299" x2="329.497" y2="315.299"/>
						
							<line style="fill:none;stroke:#2A2A2A;stroke-width:0.5064;stroke-miterlimit:10;" x1="401.849" y1="319.691" x2="329.497" y2="319.691"/>
						
							<line style="fill:none;stroke:#2A2A2A;stroke-width:0.5064;stroke-miterlimit:10;" x1="401.849" y1="324.082" x2="329.497" y2="324.082"/>
						
							<line style="fill:none;stroke:#2A2A2A;stroke-width:0.5064;stroke-miterlimit:10;" x1="401.849" y1="328.473" x2="329.497" y2="328.473"/>
						
							<line style="fill:none;stroke:#2A2A2A;stroke-width:0.5064;stroke-miterlimit:10;" x1="401.849" y1="332.865" x2="329.497" y2="332.865"/>
						
							<line style="fill:none;stroke:#2A2A2A;stroke-width:0.5064;stroke-miterlimit:10;" x1="401.849" y1="337.256" x2="329.497" y2="337.256"/>
						
							<line style="fill:none;stroke:#2A2A2A;stroke-width:0.5064;stroke-miterlimit:10;" x1="401.849" y1="341.647" x2="329.497" y2="341.647"/>
						
							<line style="fill:none;stroke:#2A2A2A;stroke-width:0.5064;stroke-miterlimit:10;" x1="401.849" y1="346.248" x2="329.497" y2="346.248"/>
						
							<line style="fill:none;stroke:#2A2A2A;stroke-width:0.5064;stroke-miterlimit:10;" x1="401.849" y1="350.848" x2="329.497" y2="350.848"/>
						
							<line style="fill:none;stroke:#2A2A2A;stroke-width:0.5064;stroke-miterlimit:10;" x1="401.849" y1="355.448" x2="329.497" y2="355.448"/>
						
							<line style="fill:none;stroke:#2A2A2A;stroke-width:0.5064;stroke-miterlimit:10;" x1="401.849" y1="360.049" x2="329.497" y2="360.049"/>
						
							<line style="fill:none;stroke:#2A2A2A;stroke-width:0.5064;stroke-miterlimit:10;" x1="401.849" y1="364.649" x2="329.497" y2="364.649"/>
					</g>
				</g>
			</g>
			<g>
				<defs>
					
						<ellipse id="SVGID_00000063610257113748940230000007488626460694514069_" transform="matrix(0.7071 -0.7071 0.7071 0.7071 38.2554 592.5011)" cx="734.34" cy="250.072" rx="74.774" ry="74.774"/>
				</defs>
				<clipPath id="SVGID_00000149370454495265378600000001278940533240408996_">
					<use xlink:href="#SVGID_00000063610257113748940230000007488626460694514069_"  style="overflow:visible;"/>
				</clipPath>
				<g style="clip-path:url(#SVGID_00000149370454495265378600000001278940533240408996_);">
					<g>
						
							<line style="fill:none;stroke:#2A2A2A;stroke-width:1.317;stroke-miterlimit:10;" x1="641.62" y1="155.993" x2="641.62" y2="344.151"/>
						
							<line style="fill:none;stroke:#2A2A2A;stroke-width:1.317;stroke-miterlimit:10;" x1="653.04" y1="155.993" x2="653.04" y2="344.151"/>
						
							<line style="fill:none;stroke:#2A2A2A;stroke-width:1.317;stroke-miterlimit:10;" x1="664.46" y1="155.993" x2="664.46" y2="344.151"/>
						
							<line style="fill:none;stroke:#2A2A2A;stroke-width:1.317;stroke-miterlimit:10;" x1="675.88" y1="155.993" x2="675.88" y2="344.151"/>
						
							<line style="fill:none;stroke:#2A2A2A;stroke-width:1.317;stroke-miterlimit:10;" x1="687.3" y1="155.993" x2="687.3" y2="344.151"/>
						
							<line style="fill:none;stroke:#2A2A2A;stroke-width:1.317;stroke-miterlimit:10;" x1="698.72" y1="155.993" x2="698.72" y2="344.151"/>
						
							<line style="fill:none;stroke:#2A2A2A;stroke-width:1.317;stroke-miterlimit:10;" x1="710.14" y1="155.993" x2="710.14" y2="344.151"/>
						
							<line style="fill:none;stroke:#2A2A2A;stroke-width:1.317;stroke-miterlimit:10;" x1="721.56" y1="155.993" x2="721.56" y2="344.151"/>
						
							<line style="fill:none;stroke:#2A2A2A;stroke-width:1.317;stroke-miterlimit:10;" x1="732.98" y1="155.993" x2="732.98" y2="344.151"/>
						
							<line style="fill:none;stroke:#2A2A2A;stroke-width:1.317;stroke-miterlimit:10;" x1="744.4" y1="155.993" x2="744.4" y2="344.151"/>
						
							<line style="fill:none;stroke:#2A2A2A;stroke-width:1.317;stroke-miterlimit:10;" x1="755.82" y1="155.993" x2="755.82" y2="344.151"/>
						
							<line style="fill:none;stroke:#2A2A2A;stroke-width:1.317;stroke-miterlimit:10;" x1="767.24" y1="155.993" x2="767.24" y2="344.151"/>
						
							<line style="fill:none;stroke:#2A2A2A;stroke-width:1.317;stroke-miterlimit:10;" x1="779.204" y1="155.993" x2="779.204" y2="344.151"/>
						
							<line style="fill:none;stroke:#2A2A2A;stroke-width:1.317;stroke-miterlimit:10;" x1="791.168" y1="155.993" x2="791.168" y2="344.151"/>
						
							<line style="fill:none;stroke:#2A2A2A;stroke-width:1.317;stroke-miterlimit:10;" x1="803.132" y1="155.993" x2="803.132" y2="344.151"/>
						
							<line style="fill:none;stroke:#2A2A2A;stroke-width:1.317;stroke-miterlimit:10;" x1="815.096" y1="155.993" x2="815.096" y2="344.151"/>
						
							<line style="fill:none;stroke:#2A2A2A;stroke-width:1.317;stroke-miterlimit:10;" x1="827.059" y1="155.993" x2="827.059" y2="344.151"/>
					</g>
					<g>
						
							<line style="fill:none;stroke:#2A2A2A;stroke-width:1.317;stroke-miterlimit:10;" x1="828.419" y1="157.353" x2="640.261" y2="157.353"/>
						
							<line style="fill:none;stroke:#2A2A2A;stroke-width:1.317;stroke-miterlimit:10;" x1="828.419" y1="168.773" x2="640.261" y2="168.773"/>
						
							<line style="fill:none;stroke:#2A2A2A;stroke-width:1.317;stroke-miterlimit:10;" x1="828.419" y1="180.193" x2="640.261" y2="180.193"/>
						
							<line style="fill:none;stroke:#2A2A2A;stroke-width:1.317;stroke-miterlimit:10;" x1="828.419" y1="191.613" x2="640.261" y2="191.613"/>
						
							<line style="fill:none;stroke:#2A2A2A;stroke-width:1.317;stroke-miterlimit:10;" x1="828.419" y1="203.033" x2="640.261" y2="203.033"/>
						
							<line style="fill:none;stroke:#2A2A2A;stroke-width:1.317;stroke-miterlimit:10;" x1="828.419" y1="214.453" x2="640.261" y2="214.453"/>
						
							<line style="fill:none;stroke:#2A2A2A;stroke-width:1.317;stroke-miterlimit:10;" x1="828.419" y1="225.873" x2="640.261" y2="225.873"/>
						
							<line style="fill:none;stroke:#2A2A2A;stroke-width:1.317;stroke-miterlimit:10;" x1="828.419" y1="237.293" x2="640.261" y2="237.293"/>
						
							<line style="fill:none;stroke:#2A2A2A;stroke-width:1.317;stroke-miterlimit:10;" x1="828.419" y1="248.713" x2="640.261" y2="248.713"/>
						
							<line style="fill:none;stroke:#2A2A2A;stroke-width:1.317;stroke-miterlimit:10;" x1="828.419" y1="260.133" x2="640.261" y2="260.133"/>
						
							<line style="fill:none;stroke:#2A2A2A;stroke-width:1.317;stroke-miterlimit:10;" x1="828.419" y1="271.553" x2="640.261" y2="271.553"/>
						
							<line style="fill:none;stroke:#2A2A2A;stroke-width:1.317;stroke-miterlimit:10;" x1="828.419" y1="282.973" x2="640.261" y2="282.973"/>
						
							<line style="fill:none;stroke:#2A2A2A;stroke-width:1.317;stroke-miterlimit:10;" x1="828.419" y1="294.937" x2="640.261" y2="294.937"/>
						
							<line style="fill:none;stroke:#2A2A2A;stroke-width:1.317;stroke-miterlimit:10;" x1="828.419" y1="306.9" x2="640.261" y2="306.9"/>
						
							<line style="fill:none;stroke:#2A2A2A;stroke-width:1.317;stroke-miterlimit:10;" x1="828.419" y1="318.864" x2="640.261" y2="318.864"/>
						
							<line style="fill:none;stroke:#2A2A2A;stroke-width:1.317;stroke-miterlimit:10;" x1="828.419" y1="330.828" x2="640.261" y2="330.828"/>
						
							<line style="fill:none;stroke:#2A2A2A;stroke-width:1.317;stroke-miterlimit:10;" x1="828.419" y1="342.792" x2="640.261" y2="342.792"/>
					</g>
				</g>
			</g>
			<g>
				<defs>
					
						<ellipse id="SVGID_00000071553487732317053420000014147847168079724691_" transform="matrix(0.7071 -0.7071 0.7071 0.7071 -230.6192 470.5513)" cx="452.696" cy="513.658" rx="74.774" ry="74.774"/>
				</defs>
				<clipPath id="SVGID_00000088829251824669184700000013606895316122191546_">
					<use xlink:href="#SVGID_00000071553487732317053420000014147847168079724691_"  style="overflow:visible;"/>
				</clipPath>
				<g style="clip-path:url(#SVGID_00000088829251824669184700000013606895316122191546_);">
					<g>
						
							<line style="fill:none;stroke:#2A2A2A;stroke-width:1.317;stroke-miterlimit:10;" x1="359.977" y1="419.578" x2="359.977" y2="607.737"/>
						
							<line style="fill:none;stroke:#2A2A2A;stroke-width:1.317;stroke-miterlimit:10;" x1="371.396" y1="419.578" x2="371.396" y2="607.737"/>
						
							<line style="fill:none;stroke:#2A2A2A;stroke-width:1.317;stroke-miterlimit:10;" x1="382.816" y1="419.578" x2="382.816" y2="607.737"/>
						
							<line style="fill:none;stroke:#2A2A2A;stroke-width:1.317;stroke-miterlimit:10;" x1="394.236" y1="419.578" x2="394.236" y2="607.737"/>
						
							<line style="fill:none;stroke:#2A2A2A;stroke-width:1.317;stroke-miterlimit:10;" x1="405.656" y1="419.578" x2="405.656" y2="607.737"/>
						
							<line style="fill:none;stroke:#2A2A2A;stroke-width:1.317;stroke-miterlimit:10;" x1="417.076" y1="419.578" x2="417.076" y2="607.737"/>
						
							<line style="fill:none;stroke:#2A2A2A;stroke-width:1.317;stroke-miterlimit:10;" x1="428.496" y1="419.578" x2="428.496" y2="607.737"/>
						
							<line style="fill:none;stroke:#2A2A2A;stroke-width:1.317;stroke-miterlimit:10;" x1="439.917" y1="419.578" x2="439.917" y2="607.737"/>
						
							<line style="fill:none;stroke:#2A2A2A;stroke-width:1.317;stroke-miterlimit:10;" x1="451.336" y1="419.578" x2="451.336" y2="607.737"/>
						
							<line style="fill:none;stroke:#2A2A2A;stroke-width:1.317;stroke-miterlimit:10;" x1="462.757" y1="419.578" x2="462.757" y2="607.737"/>
						
							<line style="fill:none;stroke:#2A2A2A;stroke-width:1.317;stroke-miterlimit:10;" x1="474.176" y1="419.578" x2="474.176" y2="607.737"/>
						
							<line style="fill:none;stroke:#2A2A2A;stroke-width:1.317;stroke-miterlimit:10;" x1="485.597" y1="419.578" x2="485.597" y2="607.737"/>
						
							<line style="fill:none;stroke:#2A2A2A;stroke-width:1.317;stroke-miterlimit:10;" x1="497.56" y1="419.578" x2="497.56" y2="607.737"/>
						
							<line style="fill:none;stroke:#2A2A2A;stroke-width:1.317;stroke-miterlimit:10;" x1="509.524" y1="419.578" x2="509.524" y2="607.737"/>
						
							<line style="fill:none;stroke:#2A2A2A;stroke-width:1.317;stroke-miterlimit:10;" x1="521.488" y1="419.578" x2="521.488" y2="607.737"/>
						
							<line style="fill:none;stroke:#2A2A2A;stroke-width:1.317;stroke-miterlimit:10;" x1="533.452" y1="419.578" x2="533.452" y2="607.737"/>
						
							<line style="fill:none;stroke:#2A2A2A;stroke-width:1.317;stroke-miterlimit:10;" x1="545.416" y1="419.578" x2="545.416" y2="607.737"/>
					</g>
					<g>
						
							<line style="fill:none;stroke:#2A2A2A;stroke-width:1.317;stroke-miterlimit:10;" x1="546.775" y1="420.938" x2="358.617" y2="420.938"/>
						
							<line style="fill:none;stroke:#2A2A2A;stroke-width:1.317;stroke-miterlimit:10;" x1="546.775" y1="432.358" x2="358.617" y2="432.358"/>
						
							<line style="fill:none;stroke:#2A2A2A;stroke-width:1.317;stroke-miterlimit:10;" x1="546.775" y1="443.778" x2="358.617" y2="443.778"/>
						
							<line style="fill:none;stroke:#2A2A2A;stroke-width:1.317;stroke-miterlimit:10;" x1="546.775" y1="455.198" x2="358.617" y2="455.198"/>
						
							<line style="fill:none;stroke:#2A2A2A;stroke-width:1.317;stroke-miterlimit:10;" x1="546.775" y1="466.618" x2="358.617" y2="466.618"/>
						
							<line style="fill:none;stroke:#2A2A2A;stroke-width:1.317;stroke-miterlimit:10;" x1="546.775" y1="478.038" x2="358.617" y2="478.038"/>
						
							<line style="fill:none;stroke:#2A2A2A;stroke-width:1.317;stroke-miterlimit:10;" x1="546.775" y1="489.458" x2="358.617" y2="489.458"/>
						
							<line style="fill:none;stroke:#2A2A2A;stroke-width:1.317;stroke-miterlimit:10;" x1="546.775" y1="500.878" x2="358.617" y2="500.878"/>
						
							<line style="fill:none;stroke:#2A2A2A;stroke-width:1.317;stroke-miterlimit:10;" x1="546.775" y1="512.298" x2="358.617" y2="512.298"/>
						
							<line style="fill:none;stroke:#2A2A2A;stroke-width:1.317;stroke-miterlimit:10;" x1="546.775" y1="523.718" x2="358.617" y2="523.718"/>
						
							<line style="fill:none;stroke:#2A2A2A;stroke-width:1.317;stroke-miterlimit:10;" x1="546.775" y1="535.138" x2="358.617" y2="535.138"/>
						
							<line style="fill:none;stroke:#2A2A2A;stroke-width:1.317;stroke-miterlimit:10;" x1="546.775" y1="546.558" x2="358.617" y2="546.558"/>
						
							<line style="fill:none;stroke:#2A2A2A;stroke-width:1.317;stroke-miterlimit:10;" x1="546.775" y1="558.522" x2="358.617" y2="558.522"/>
						
							<line style="fill:none;stroke:#2A2A2A;stroke-width:1.317;stroke-miterlimit:10;" x1="546.775" y1="570.486" x2="358.617" y2="570.486"/>
						
							<line style="fill:none;stroke:#2A2A2A;stroke-width:1.317;stroke-miterlimit:10;" x1="546.775" y1="582.45" x2="358.617" y2="582.45"/>
						
							<line style="fill:none;stroke:#2A2A2A;stroke-width:1.317;stroke-miterlimit:10;" x1="546.775" y1="594.413" x2="358.617" y2="594.413"/>
						
							<line style="fill:none;stroke:#2A2A2A;stroke-width:1.317;stroke-miterlimit:10;" x1="546.775" y1="606.377" x2="358.617" y2="606.377"/>
					</g>
				</g>
			</g>
			<g>
				<path style="fill:#2A2A2A;" d="M558.655,168.192c0,2.64-2.14,4.779-4.779,4.779c-2.64,0-4.779-2.14-4.779-4.779
					c0-2.639,2.14-4.779,4.779-4.779C556.515,163.413,558.655,165.552,558.655,168.192z"/>
				<path style="fill:#2A2A2A;" d="M576.406,168.192c0,2.64-2.14,4.779-4.779,4.779c-2.64,0-4.779-2.14-4.779-4.779
					c0-2.639,2.14-4.779,4.779-4.779C574.267,163.413,576.406,165.552,576.406,168.192z"/>
				<path style="fill:#2A2A2A;" d="M594.158,168.192c0,2.64-2.14,4.779-4.779,4.779c-2.64,0-4.779-2.14-4.779-4.779
					c0-2.639,2.14-4.779,4.779-4.779C592.019,163.413,594.158,165.552,594.158,168.192z"/>
				<path style="fill:#2A2A2A;" d="M611.91,168.192c0,2.64-2.14,4.779-4.779,4.779c-2.64,0-4.779-2.14-4.779-4.779
					c0-2.639,2.14-4.779,4.779-4.779C609.771,163.413,611.91,165.552,611.91,168.192z"/>
				<path style="fill:#2A2A2A;" d="M558.655,183.895c0,2.64-2.14,4.779-4.779,4.779c-2.64,0-4.779-2.14-4.779-4.779
					c0-2.639,2.14-4.779,4.779-4.779C556.515,179.116,558.655,181.256,558.655,183.895z"/>
				<path style="fill:#2A2A2A;" d="M576.406,183.895c0,2.64-2.14,4.779-4.779,4.779c-2.64,0-4.779-2.14-4.779-4.779
					c0-2.639,2.14-4.779,4.779-4.779C574.267,179.116,576.406,181.256,576.406,183.895z"/>
				<path style="fill:#2A2A2A;" d="M594.158,183.895c0,2.64-2.14,4.779-4.779,4.779c-2.64,0-4.779-2.14-4.779-4.779
					c0-2.639,2.14-4.779,4.779-4.779C592.019,179.116,594.158,181.256,594.158,183.895z"/>
				<path style="fill:#2A2A2A;" d="M611.91,183.895c0,2.64-2.14,4.779-4.779,4.779c-2.64,0-4.779-2.14-4.779-4.779
					c0-2.639,2.14-4.779,4.779-4.779C609.771,179.116,611.91,181.256,611.91,183.895z"/>
				<path style="fill:#2A2A2A;" d="M558.655,199.599c0,2.64-2.14,4.779-4.779,4.779c-2.64,0-4.779-2.14-4.779-4.779
					c0-2.64,2.14-4.779,4.779-4.779C556.515,194.82,558.655,196.959,558.655,199.599z"/>
				<circle style="fill:#2A2A2A;" cx="571.627" cy="199.599" r="4.779"/>
				<path style="fill:#2A2A2A;" d="M594.158,199.599c0,2.64-2.14,4.779-4.779,4.779c-2.64,0-4.779-2.14-4.779-4.779
					c0-2.64,2.14-4.779,4.779-4.779C592.019,194.82,594.158,196.959,594.158,199.599z"/>
				<circle style="fill:#2A2A2A;" cx="607.131" cy="199.599" r="4.779"/>
				<path style="fill:#2A2A2A;" d="M558.655,215.302c0,2.64-2.14,4.779-4.779,4.779c-2.64,0-4.779-2.14-4.779-4.779
					c0-2.639,2.14-4.779,4.779-4.779C556.515,210.523,558.655,212.663,558.655,215.302z"/>
				<path style="fill:#2A2A2A;" d="M576.406,215.302c0,2.64-2.14,4.779-4.779,4.779c-2.64,0-4.779-2.14-4.779-4.779
					c0-2.639,2.14-4.779,4.779-4.779C574.267,210.523,576.406,212.663,576.406,215.302z"/>
				<path style="fill:#2A2A2A;" d="M594.158,215.302c0,2.64-2.14,4.779-4.779,4.779c-2.64,0-4.779-2.14-4.779-4.779
					c0-2.639,2.14-4.779,4.779-4.779C592.019,210.523,594.158,212.663,594.158,215.302z"/>
				<path style="fill:#2A2A2A;" d="M611.91,215.302c0,2.64-2.14,4.779-4.779,4.779c-2.64,0-4.779-2.14-4.779-4.779
					c0-2.639,2.14-4.779,4.779-4.779C609.771,210.523,611.91,212.663,611.91,215.302z"/>
				<path style="fill:#2A2A2A;" d="M558.655,231.006c0,2.64-2.14,4.779-4.779,4.779c-2.64,0-4.779-2.14-4.779-4.779
					s2.14-4.779,4.779-4.779C556.515,226.227,558.655,228.366,558.655,231.006z"/>
				<path style="fill:#2A2A2A;" d="M576.406,231.006c0,2.64-2.14,4.779-4.779,4.779c-2.64,0-4.779-2.14-4.779-4.779
					s2.14-4.779,4.779-4.779C574.267,226.227,576.406,228.366,576.406,231.006z"/>
				<path style="fill:#2A2A2A;" d="M594.158,231.006c0,2.64-2.14,4.779-4.779,4.779c-2.64,0-4.779-2.14-4.779-4.779
					s2.14-4.779,4.779-4.779C592.019,226.227,594.158,228.366,594.158,231.006z"/>
				<path style="fill:#2A2A2A;" d="M611.91,231.006c0,2.64-2.14,4.779-4.779,4.779c-2.64,0-4.779-2.14-4.779-4.779
					s2.14-4.779,4.779-4.779C609.771,226.227,611.91,228.366,611.91,231.006z"/>
			</g>
			<g>
				<path style="fill:#2A2A2A;" d="M234.185,211.725c0,2.64-2.14,4.779-4.779,4.779s-4.779-2.14-4.779-4.779
					c0-2.64,2.14-4.779,4.779-4.779S234.185,209.085,234.185,211.725z"/>
				<path style="fill:#2A2A2A;" d="M251.937,211.725c0,2.64-2.14,4.779-4.779,4.779c-2.64,0-4.779-2.14-4.779-4.779
					c0-2.64,2.14-4.779,4.779-4.779C249.797,206.946,251.937,209.085,251.937,211.725z"/>
				<path style="fill:#2A2A2A;" d="M269.689,211.725c0,2.64-2.14,4.779-4.779,4.779c-2.64,0-4.779-2.14-4.779-4.779
					c0-2.64,2.14-4.779,4.779-4.779C267.549,206.946,269.689,209.085,269.689,211.725z"/>
				<path style="fill:#2A2A2A;" d="M287.441,211.725c0,2.64-2.14,4.779-4.779,4.779c-2.64,0-4.779-2.14-4.779-4.779
					c0-2.64,2.14-4.779,4.779-4.779C285.301,206.946,287.441,209.085,287.441,211.725z"/>
				<path style="fill:#2A2A2A;" d="M234.185,227.429c0,2.639-2.14,4.779-4.779,4.779s-4.779-2.14-4.779-4.779
					c0-2.64,2.14-4.779,4.779-4.779S234.185,224.789,234.185,227.429z"/>
				<path style="fill:#2A2A2A;" d="M251.937,227.429c0,2.639-2.14,4.779-4.779,4.779c-2.64,0-4.779-2.14-4.779-4.779
					c0-2.64,2.14-4.779,4.779-4.779C249.797,222.649,251.937,224.789,251.937,227.429z"/>
				<path style="fill:#2A2A2A;" d="M269.689,227.429c0,2.639-2.14,4.779-4.779,4.779c-2.64,0-4.779-2.14-4.779-4.779
					c0-2.64,2.14-4.779,4.779-4.779C267.549,222.649,269.689,224.789,269.689,227.429z"/>
				<path style="fill:#2A2A2A;" d="M287.441,227.429c0,2.639-2.14,4.779-4.779,4.779c-2.64,0-4.779-2.14-4.779-4.779
					c0-2.64,2.14-4.779,4.779-4.779C285.301,222.649,287.441,224.789,287.441,227.429z"/>
				<path style="fill:#2A2A2A;" d="M234.185,243.132c0,2.639-2.14,4.779-4.779,4.779s-4.779-2.14-4.779-4.779
					c0-2.64,2.14-4.779,4.779-4.779S234.185,240.492,234.185,243.132z"/>
				<path style="fill:#2A2A2A;" d="M251.937,243.132c0,2.639-2.14,4.779-4.779,4.779c-2.64,0-4.779-2.14-4.779-4.779
					c0-2.64,2.14-4.779,4.779-4.779C249.797,238.353,251.937,240.492,251.937,243.132z"/>
				<path style="fill:#2A2A2A;" d="M269.689,243.132c0,2.639-2.14,4.779-4.779,4.779c-2.64,0-4.779-2.14-4.779-4.779
					c0-2.64,2.14-4.779,4.779-4.779C267.549,238.353,269.689,240.492,269.689,243.132z"/>
				<path style="fill:#2A2A2A;" d="M287.441,243.132c0,2.639-2.14,4.779-4.779,4.779c-2.64,0-4.779-2.14-4.779-4.779
					c0-2.64,2.14-4.779,4.779-4.779C285.301,238.353,287.441,240.492,287.441,243.132z"/>
				<path style="fill:#2A2A2A;" d="M234.185,258.836c0,2.64-2.14,4.779-4.779,4.779s-4.779-2.14-4.779-4.779
					c0-2.64,2.14-4.779,4.779-4.779S234.185,256.196,234.185,258.836z"/>
				<path style="fill:#2A2A2A;" d="M251.937,258.836c0,2.64-2.14,4.779-4.779,4.779c-2.64,0-4.779-2.14-4.779-4.779
					c0-2.64,2.14-4.779,4.779-4.779C249.797,254.056,251.937,256.196,251.937,258.836z"/>
				<path style="fill:#2A2A2A;" d="M269.689,258.836c0,2.64-2.14,4.779-4.779,4.779c-2.64,0-4.779-2.14-4.779-4.779
					c0-2.64,2.14-4.779,4.779-4.779C267.549,254.056,269.689,256.196,269.689,258.836z"/>
				<path style="fill:#2A2A2A;" d="M287.441,258.836c0,2.64-2.14,4.779-4.779,4.779c-2.64,0-4.779-2.14-4.779-4.779
					c0-2.64,2.14-4.779,4.779-4.779C285.301,254.056,287.441,256.196,287.441,258.836z"/>
				<path style="fill:#2A2A2A;" d="M234.185,274.539c0,2.639-2.14,4.779-4.779,4.779s-4.779-2.14-4.779-4.779
					c0-2.64,2.14-4.779,4.779-4.779S234.185,271.9,234.185,274.539z"/>
				<path style="fill:#2A2A2A;" d="M251.937,274.539c0,2.639-2.14,4.779-4.779,4.779c-2.64,0-4.779-2.14-4.779-4.779
					c0-2.64,2.14-4.779,4.779-4.779C249.797,269.76,251.937,271.9,251.937,274.539z"/>
				<path style="fill:#2A2A2A;" d="M269.689,274.539c0,2.639-2.14,4.779-4.779,4.779c-2.64,0-4.779-2.14-4.779-4.779
					c0-2.64,2.14-4.779,4.779-4.779C267.549,269.76,269.689,271.9,269.689,274.539z"/>
				<path style="fill:#2A2A2A;" d="M287.441,274.539c0,2.639-2.14,4.779-4.779,4.779c-2.64,0-4.779-2.14-4.779-4.779
					c0-2.64,2.14-4.779,4.779-4.779C285.301,269.76,287.441,271.9,287.441,274.539z"/>
			</g>
			<g>
				
					<rect x="424.742" y="316.772" style="fill:none;stroke:#1D1D1B;stroke-width:2;stroke-linejoin:round;stroke-miterlimit:10;" width="37.469" height="37.469"/>
				<polyline style="fill:none;stroke:#1D1D1B;stroke-width:2;stroke-linejoin:round;stroke-miterlimit:10;" points="
					424.621,316.818 438.367,308.864 474.133,308.864 462.211,316.772 				"/>
				<polyline style="fill:none;stroke:#1D1D1B;stroke-width:2;stroke-linejoin:round;stroke-miterlimit:10;" points="
					461.846,354.423 473.768,344.508 473.768,309.229 				"/>
				<polyline style="fill:none;stroke:#1D1D1B;stroke-width:2;stroke-linejoin:round;stroke-miterlimit:10;" points="
					438.002,309.229 438.002,344.995 424.742,354.241 				"/>
				
					<line style="fill:none;stroke:#1D1D1B;stroke-width:2;stroke-linejoin:round;stroke-miterlimit:10;" x1="438.002" y1="344.995" x2="473.768" y2="344.508"/>
			</g>
			<path style="fill:#0F4C81;" d="M79.712,345.842c-20.572,0-37.308-16.736-37.308-37.308c0-20.571,16.736-37.307,37.308-37.307
				c20.572,0,37.308,16.736,37.308,37.307C117.02,329.106,100.284,345.842,79.712,345.842z M79.712,277.348
				c-17.196,0-31.186,13.99-31.186,31.186c0,17.197,13.99,31.187,31.186,31.187c17.196,0,31.187-13.99,31.187-31.187
				C110.898,291.338,96.908,277.348,79.712,277.348z"/>
			<path style="fill:#0F4C81;" d="M272.532,176.541c-20.572,0-37.308-16.736-37.308-37.308c0-20.571,16.736-37.308,37.308-37.308
				c20.572,0,37.308,16.736,37.308,37.308C309.84,159.805,293.104,176.541,272.532,176.541z M272.532,108.047
				c-17.196,0-31.186,13.99-31.186,31.186c0,17.197,13.99,31.186,31.186,31.186c17.196,0,31.187-13.99,31.187-31.186
				C303.719,122.037,289.728,108.047,272.532,108.047z"/>
			<polygon style="fill:#0F4C81;" points="527.797,433.284 496.204,315.377 614.11,346.97 			"/>
			<polygon style="fill:#0F4C81;" points="748.075,159.302 731.443,97.228 793.516,113.861 			"/>
			<path style="fill:#0F4C81;" d="M670.386,542.173c-30.081,0-54.554-24.473-54.554-54.555c0-30.081,24.473-54.554,54.554-54.554
				c30.082,0,54.555,24.473,54.555,54.554C724.941,517.7,700.468,542.173,670.386,542.173z M670.386,442.015
				c-25.146,0-45.603,20.457-45.603,45.603c0,25.146,20.457,45.603,45.603,45.603c25.146,0,45.603-20.457,45.603-45.603
				C715.989,462.473,695.532,442.015,670.386,442.015z"/>
			<polygon style="fill:#0F4C81;" points="213.373,407.893 202.115,365.877 244.131,377.135 			"/>
			<polygon style="fill:#0F4C81;" points="32.923,405.002 21.664,362.985 63.681,374.244 			"/>
			<g>
				<path style="fill:#2A2A2A;" d="M156.717,311.903c1.481,0,2.681,1.2,2.681,2.681c0,1.481-1.2,2.681-2.681,2.681
					c-1.48,0-2.681-1.2-2.681-2.681C154.036,313.103,155.237,311.903,156.717,311.903z"/>
				<path style="fill:#2A2A2A;" d="M156.717,301.945c1.481,0,2.681,1.2,2.681,2.681c0,1.481-1.2,2.681-2.681,2.681
					c-1.48,0-2.681-1.2-2.681-2.681C154.036,303.146,155.237,301.945,156.717,301.945z"/>
				<path style="fill:#2A2A2A;" d="M156.717,291.988c1.481,0,2.681,1.2,2.681,2.681c0,1.48-1.2,2.681-2.681,2.681
					c-1.48,0-2.681-1.2-2.681-2.681C154.036,293.189,155.237,291.988,156.717,291.988z"/>
				<path style="fill:#2A2A2A;" d="M156.717,282.031c1.481,0,2.681,1.2,2.681,2.681c0,1.481-1.2,2.681-2.681,2.681
					c-1.48,0-2.681-1.2-2.681-2.681C154.036,283.231,155.237,282.031,156.717,282.031z"/>
				<circle style="fill:#2A2A2A;" cx="165.525" cy="314.583" r="2.681"/>
				<circle style="fill:#2A2A2A;" cx="165.525" cy="304.626" r="2.681"/>
				<circle style="fill:#2A2A2A;" cx="165.525" cy="294.669" r="2.681"/>
				<circle style="fill:#2A2A2A;" cx="165.525" cy="284.712" r="2.681"/>
				<circle style="fill:#2A2A2A;" cx="174.334" cy="314.583" r="2.681"/>
				<circle style="fill:#2A2A2A;" cx="174.334" cy="304.626" r="2.681"/>
				<circle style="fill:#2A2A2A;" cx="174.334" cy="294.669" r="2.681"/>
				<circle style="fill:#2A2A2A;" cx="174.334" cy="284.712" r="2.681"/>
				<circle style="fill:#2A2A2A;" cx="183.142" cy="314.583" r="2.681"/>
				<circle style="fill:#2A2A2A;" cx="183.142" cy="304.626" r="2.681"/>
				<circle style="fill:#2A2A2A;" cx="183.142" cy="294.669" r="2.681"/>
				<circle style="fill:#2A2A2A;" cx="183.142" cy="284.712" r="2.681"/>
				<circle style="fill:#2A2A2A;" cx="191.951" cy="314.583" r="2.681"/>
				<circle style="fill:#2A2A2A;" cx="191.951" cy="304.626" r="2.681"/>
				<circle style="fill:#2A2A2A;" cx="191.951" cy="294.669" r="2.681"/>
				<circle style="fill:#2A2A2A;" cx="191.951" cy="284.712" r="2.681"/>
			</g>
			
				<ellipse transform="matrix(0.2287 -0.9735 0.9735 0.2287 -21.8365 921.2796)" style="fill:#0F4C81;" cx="570.455" cy="474.42" rx="11.142" ry="11.142"/>
			
				<ellipse transform="matrix(0.2273 -0.9738 0.9738 0.2273 1.9619 531.912)" style="fill:#0F4C81;" cx="336.165" cy="264.72" rx="25.118" ry="25.118"/>
			<polygon style="fill:#0F4C81;" points="192.507,125.642 183.751,92.962 216.431,101.718 			"/>
		</g>
	</g>
</g>
</svg>
